<svg xmlns="http://www.w3.org/2000/svg" style="display: none">
    <defs>
        <symbol id="home-thin" viewBox="0 0 24 24">            <!-- from Boxicons-->
            <path d="M3 13h1v7c0 1.1.9 2 2 2h12c1.1 0 2-.9 2-2v-7h1c.4 0 .77-.24.92-.62.15-.37.07-.8-.22-1.09l-8.99-9a.996.996 0 0 0-1.41 0l-9.01 9c-.29.29-.37.72-.22 1.09s.52.62.92.62Zm9-8.59 6 6V20H6v-9.59z"></path>
        </symbol>
        <symbol id="home-full" viewBox="0 0 24 24">            <!-- from Boxicons-->
            <path d="M3 13h1v7c0 1.1.9 2 2 2h12c1.1 0 2-.9 2-2v-7h1c.4 0 .77-.24.92-.62.16-.37.07-.8-.22-1.09l-8.99-9a.996.996 0 0 0-1.41 0l-9.01 9c-.29.29-.37.72-.22 1.09s.52.62.92.62Z"></path>
        </symbol>

        <symbol id="chevron-left" viewBox="0 0 24 24">            <!-- from Boxicons-->
            <path d="M14.29 6.29 8.59 12l5.7 5.71 1.42-1.42-4.3-4.29 4.3-4.29z"></path>
        </symbol>

        <symbol id="arrow-left-stroke" viewBox="0 0 24 24">            <!-- from Boxicons-->
            <path d="M11.79 6.29 6.09 12l5.7 5.71 1.42-1.42L9.91 13H18v-2H9.91l3.3-3.29z"></path>
        </symbol>

        <symbol id="cog-thin" viewBox="0 0 24 24">            <!-- from Boxicons-->
            <path d="M12 8c-2.21 0-4 1.79-4 4s1.79 4 4 4 4-1.79 4-4-1.79-4-4-4m0 6c-1.08 0-2-.92-2-2s.92-2 2-2 2 .92 2 2-.92 2-2 2"></path>
            <path d="m20.42 13.4-.51-.29c.05-.37.08-.74.08-1.11s-.03-.74-.08-1.11l.51-.29c.96-.55 1.28-1.78.73-2.73l-1-1.73a2.006 2.006 0 0 0-2.73-.73l-.53.31c-.58-.46-1.22-.83-1.9-1.11v-.6c0-1.1-.9-2-2-2h-2c-1.1 0-2 .9-2 2v.6c-.67.28-1.31.66-1.9 1.11l-.53-.31c-.96-.55-2.18-.22-2.73.73l-1 1.73c-.55.96-.22 2.18.73 2.73l.51.29c-.05.37-.08.74-.08 1.11s.03.74.08 1.11l-.51.29c-.96.55-1.28 1.78-.73 2.73l1 1.73c.55.95 1.77 1.28 2.73.73l.53-.31c.58.46 1.22.83 1.9 1.11v.6c0 1.1.9 2 2 2h2c1.1 0 2-.9 2-2v-.6a8.7 8.7 0 0 0 1.9-1.11l.53.31c.95.55 2.18.22 2.73-.73l1-1.73c.55-.96.22-2.18-.73-2.73m-2.59-2.78c.11.45.17.92.17 1.38s-.06.92-.17 1.38a1 1 0 0 0 .47 1.11l1.12.65-1 1.73-1.14-.66c-.38-.22-.87-.16-1.19.14-.68.65-1.51 1.13-2.38 1.4-.42.13-.71.52-.71.96v1.3h-2v-1.3c0-.44-.29-.83-.71-.96-.88-.27-1.7-.75-2.38-1.4a1.01 1.01 0 0 0-1.19-.15l-1.14.66-1-1.73 1.12-.65c.39-.22.58-.68.47-1.11-.11-.45-.17-.92-.17-1.38s.06-.93.17-1.38A1 1 0 0 0 5.7 9.5l-1.12-.65 1-1.73 1.14.66c.38.22.87.16 1.19-.14.68-.65 1.51-1.13 2.38-1.4.42-.13.71-.52.71-.96v-1.3h2v1.3c0 .44.29.83.71.96.88.27 1.7.75 2.38 1.4.32.31.81.36 1.19.14l1.14-.66 1 1.73-1.12.65c-.39.22-.58.68-.47 1.11Z"></path>
        </symbol>
        <symbol id="cog-full" viewBox="0 0 24 24">            <!-- from Boxicons-->
            <path d="m21.16 7.86-1-1.73a1.997 1.997 0 0 0-2.73-.73l-.53.31c-.58-.46-1.22-.83-1.9-1.11V4c0-1.1-.9-2-2-2h-2c-1.1 0-2 .9-2 2v.6c-.67.28-1.31.66-1.9 1.11l-.53-.31c-.96-.55-2.18-.22-2.73.73l-1 1.73c-.55.96-.22 2.18.73 2.73l.5.29c-.05.37-.08.74-.08 1.11s.03.74.08 1.11l-.5.29c-.96.55-1.28 1.78-.73 2.73l1 1.73c.55.95 1.78 1.28 2.73.73l.53-.31c.58.46 1.22.83 1.9 1.11v.6c0 1.1.9 2 2 2h2c1.1 0 2-.9 2-2v-.6a8.7 8.7 0 0 0 1.9-1.11l.53.31c.96.55 2.18.22 2.73-.73l1-1.73c.55-.96.22-2.18-.73-2.73l-.5-.29c.05-.37.08-.74.08-1.11s-.03-.74-.08-1.11l.5-.29c.96-.55 1.28-1.78.73-2.73M12 16c-2.21 0-4-1.79-4-4s1.79-4 4-4 4 1.79 4 4-1.79 4-4 4"></path>
        </symbol>

        <symbol id="slider-alt-thin" viewBox="0 0 24 24">            <!-- from Boxicons-->
            <path d="m6,11c1.86,0,3.41-1.28,3.86-3h12.14v-2h-12.14c-.45-1.72-2-3-3.86-3-2.21,0-4,1.79-4,4s1.79,4,4,4Zm0-6c1.1,0,2,.9,2,2s-.9,2-2,2-2-.9-2-2,.9-2,2-2Z"></path>
            <path d="m18,21c2.21,0,4-1.79,4-4s-1.79-4-4-4c-1.86,0-3.41,1.28-3.86,3H2v2h12.14c.45,1.72,2,3,3.86,3Zm0-6c1.1,0,2,.9,2,2s-.9,2-2,2-2-.9-2-2,.9-2,2-2Z"></path>
        </symbol>
        <symbol id="slider-alt-full" viewBox="0 0 24 24">            <!-- from Boxicons-->
            <path d="m6,11c1.86,0,3.41-1.28,3.86-3h12.14v-2h-12.14c-.45-1.72-2-3-3.86-3-2.21,0-4,1.79-4,4s1.79,4,4,4Z"></path>
            <path d="m18,21c2.21,0,4-1.79,4-4s-1.79-4-4-4c-1.86,0-3.41,1.28-3.86,3H2v2h12.14c.45,1.72,2,3,3.86,3Z"></path>
        </symbol>

        <symbol id="slider-thin" viewBox="0 0 24 24">            <!-- from Boxicons-->
            <path d="m8.5,1.5c-1.58,0-2.9,1.06-3.34,2.5h-3.16v2h3.16c.43,1.44,1.76,2.5,3.34,2.5s2.9-1.06,3.34-2.5h10.16v-2h-10.16c-.43-1.44-1.76-2.5-3.34-2.5Zm0,5c-.83,0-1.5-.67-1.5-1.5s.67-1.5,1.5-1.5,1.5.67,1.5,1.5-.67,1.5-1.5,1.5Z"></path>
            <path d="m8.5,15.5c-1.58,0-2.9,1.06-3.34,2.5h-3.16v2h3.16c.43,1.44,1.76,2.5,3.34,2.5s2.9-1.06,3.34-2.5h10.16v-2h-10.16c-.43-1.44-1.76-2.5-3.34-2.5Zm0,5c-.83,0-1.5-.67-1.5-1.5s.67-1.5,1.5-1.5,1.5.67,1.5,1.5-.67,1.5-1.5,1.5Z"></path>
            <path d="m16.5,8.5c-1.58,0-2.9,1.06-3.34,2.5H2v2h11.16c.43,1.44,1.76,2.5,3.34,2.5s2.9-1.06,3.34-2.5h2.16v-2h-2.16c-.43-1.44-1.76-2.5-3.34-2.5Zm0,5c-.83,0-1.5-.67-1.5-1.5s.67-1.5,1.5-1.5,1.5.67,1.5,1.5-.67,1.5-1.5,1.5Z"></path>
        </symbol>
        <symbol id="slider-full" viewBox="0 0 24 24">            <!-- from Boxicons-->
            <path d="m8.5,1.5c-1.58,0-2.9,1.06-3.34,2.5h-3.16v2h3.16c.43,1.44,1.76,2.5,3.34,2.5s2.9-1.06,3.34-2.5h10.16v-2h-10.16c-.43-1.44-1.76-2.5-3.34-2.5Z"></path>
            <path d="m8.5,15.5c-1.58,0-2.9,1.06-3.34,2.5h-3.16v2h3.16c.43,1.44,1.76,2.5,3.34,2.5s2.9-1.06,3.34-2.5h10.16v-2h-10.16c-.43-1.44-1.76-2.5-3.34-2.5Z"></path>
            <path d="m16.5,8.5c-1.58,0-2.9,1.06-3.34,2.5H2v2h11.16c.43,1.44,1.76,2.5,3.34,2.5s2.9-1.06,3.34-2.5h2.16v-2h-2.16c-.43-1.44-1.76-2.5-3.34-2.5Z"></path>
        </symbol>

    </defs>
</svg>
